<?xml version="1.0" encoding="utf-8"?>
<!-- Generator: Adobe Illustrator 19.2.1, SVG Export Plug-In . SVG Version: 6.00 Build 0)  -->
<svg version="1.1" id="layer" xmlns="http://www.w3.org/2000/svg" xmlns:xlink="http://www.w3.org/1999/xlink" x="0px" y="0px"
	 viewBox="0 0 652 652" style="enable-background:new 0 0 652 652;" xml:space="preserve">
<style type="text/css">
	.st0{fill:#FF0000;}
	.st1{fill:#FFCC00;}
	.st2{fill:#F7AA45;}
</style>
<path d="M111.5,264.4c0,0.6-0.1,1.1-0.2,1.5c-0.1,0.4-0.3,0.8-0.6,1.1c-0.2,0.3-0.5,0.6-0.9,0.8c-0.3,0.2-0.7,0.3-1,0.4v0
	c0.4,0.1,0.8,0.2,1.2,0.5c0.8,0.5,1.4,1.2,1.7,2.1c0.2,0.5,0.3,1,0.3,1.5c0,0.6-0.1,1.2-0.3,1.8c-0.2,0.6-0.6,1.1-1.1,1.4
	c-0.5,0.4-1.1,0.7-1.8,1c-0.7,0.2-1.6,0.3-2.6,0.3h-3.4v-16.8h3.2c1,0,1.8,0.1,2.5,0.3c0.7,0.2,1.3,0.5,1.7,0.9
	c0.5,0.4,0.8,0.8,1,1.4C111.4,263.2,111.5,263.8,111.5,264.4L111.5,264.4z M109.3,264.5c0-0.8-0.3-1.4-0.8-1.9
	c-0.5-0.5-1.4-0.8-2.6-0.8h-1.1v5.8h1.1c1.1,0,2-0.3,2.6-0.8C109,266.3,109.3,265.5,109.3,264.5L109.3,264.5z M109.6,272.3
	c0-0.9-0.3-1.6-0.9-2.2c-0.6-0.5-1.4-0.8-2.5-0.8h-1.4v5.9h1.3c1.3,0,2.2-0.2,2.7-0.7C109.4,274,109.6,273.2,109.6,272.3
	L109.6,272.3z M122.7,277h-1.8v-1.3h0c0,0.1-0.2,0.2-0.3,0.4c-0.2,0.2-0.4,0.4-0.6,0.5c-0.3,0.2-0.6,0.3-0.9,0.5
	c-0.4,0.1-0.8,0.2-1.2,0.2c-0.5,0-1-0.1-1.4-0.2c-0.4-0.2-0.8-0.4-1.1-0.7c-0.3-0.3-0.5-0.8-0.7-1.3c-0.2-0.5-0.2-1.2-0.2-2v-7.7h2
	v7.5c0,1,0.2,1.7,0.5,2.1c0.3,0.4,0.8,0.6,1.5,0.6c0.6,0,1-0.1,1.4-0.4c0.4-0.3,0.7-0.6,0.9-0.8v-9h2L122.7,277L122.7,277z
	 M132.1,277v-7.5c0-1-0.2-1.7-0.5-2.1c-0.3-0.4-0.8-0.6-1.5-0.6c-0.6,0-1.1,0.1-1.5,0.4c-0.4,0.3-0.7,0.6-0.9,0.9v9h-2v-11.7h1.8
	v1.3h0c0.2-0.4,0.6-0.7,1-1c0.3-0.2,0.6-0.3,0.9-0.5c0.4-0.1,0.8-0.2,1.2-0.2c0.5,0,1,0.1,1.4,0.2c0.4,0.2,0.8,0.4,1.1,0.7
	c0.3,0.3,0.5,0.8,0.7,1.3c0.2,0.5,0.2,1.2,0.2,2v7.7L132.1,277L132.1,277z M136.5,271.3c0-1.2,0.2-2.2,0.5-3
	c0.3-0.8,0.7-1.4,1.2-1.9c0.5-0.5,1-0.8,1.7-1c0.6-0.2,1.2-0.3,1.9-0.3c0.4,0,0.7,0,1,0.1c0.3,0.1,0.5,0.1,0.7,0.2v-5.6l2-0.2V277
	h-1.8v-1.2h0c-0.2,0.4-0.5,0.7-0.8,0.9c-0.3,0.2-0.5,0.3-0.9,0.4c-0.3,0.1-0.7,0.2-1.2,0.2c-0.5,0-1.1-0.1-1.6-0.3
	c-0.5-0.2-1-0.6-1.3-1c-0.4-0.5-0.7-1.1-0.9-1.9C136.6,273.3,136.5,272.4,136.5,271.3L136.5,271.3z M141.1,275.5
	c0.7,0,1.4-0.3,1.9-0.8c0.1-0.1,0.2-0.2,0.3-0.3v-7.2c-0.2-0.1-0.4-0.2-0.6-0.3c-0.3-0.1-0.6-0.1-0.9-0.1c-0.5,0-0.9,0.1-1.3,0.2
	c-0.4,0.2-0.7,0.4-1,0.8c-0.3,0.4-0.5,0.8-0.7,1.4c-0.2,0.6-0.3,1.3-0.3,2.1c0,0.8,0.1,1.5,0.2,2c0.1,0.5,0.3,1,0.6,1.3
	c0.2,0.3,0.5,0.6,0.8,0.7C140.4,275.4,140.8,275.5,141.1,275.5z M155.8,269.2c0,0.5,0,0.9,0,1.3c0,0.3-0.1,0.6-0.1,1h-6
	c0.1,1.4,0.4,2.4,0.9,3s1.3,1,2.3,1c0.3,0,0.7,0,0.9-0.1c0.6-0.2,1.1-0.5,1.5-0.9l0.7,1.4c-0.1,0.1-0.2,0.2-0.4,0.4
	c-0.2,0.2-0.4,0.3-0.7,0.5c-0.3,0.2-0.7,0.3-1,0.4c-0.5,0.1-1,0.2-1.4,0.2c-0.7,0-1.4-0.1-2-0.4c-0.6-0.2-1.1-0.6-1.5-1.1
	c-0.4-0.5-0.7-1.2-1-1.9c-0.2-0.8-0.3-1.7-0.3-2.8c0-1,0.1-1.9,0.4-2.7c0.2-0.8,0.6-1.4,1-1.9c0.4-0.5,0.9-0.8,1.4-1.1
	c0.5-0.2,1.1-0.4,1.7-0.4c1.1,0,2,0.4,2.6,1.1C155.5,266.7,155.8,267.8,155.8,269.2L155.8,269.2z M152.1,266.6
	c-0.7,0-1.3,0.3-1.7,0.9c-0.4,0.6-0.7,1.4-0.7,2.5h4.3c0-0.1,0-0.2,0-0.4c0-0.2,0-0.3,0-0.5c0-0.8-0.2-1.4-0.5-1.9
	C153.2,266.8,152.7,266.6,152.1,266.6L152.1,266.6z M163.4,267.6c-0.2-0.2-0.5-0.4-0.7-0.6c-0.3-0.3-0.8-0.4-1.3-0.4
	c-0.5,0-0.9,0.1-1.2,0.4c-0.3,0.2-0.4,0.5-0.4,0.9c0,0.4,0.1,0.8,0.4,1.1c0.3,0.3,0.6,0.6,1.2,0.9l0.7,0.4c0.8,0.5,1.4,1,1.9,1.5
	c0.5,0.5,0.7,1.2,0.7,2.1c0,0.9-0.3,1.7-1,2.3c-0.6,0.6-1.6,1-2.8,1c-0.5,0-0.9-0.1-1.2-0.1c-0.3-0.1-0.6-0.2-0.9-0.3
	c-0.2-0.1-0.5-0.3-0.7-0.4c-0.2-0.2-0.3-0.3-0.4-0.4l1-1.6c0.1,0.1,0.2,0.2,0.4,0.3c0.3,0.3,0.7,0.5,1.2,0.7
	c0.2,0.1,0.5,0.1,0.9,0.1c0.6,0,1-0.1,1.3-0.4c0.3-0.2,0.5-0.6,0.5-1c0-0.2,0-0.5-0.1-0.7c-0.1-0.2-0.2-0.4-0.3-0.5
	c-0.2-0.2-0.3-0.3-0.5-0.5c-0.2-0.2-0.5-0.3-0.7-0.5l-0.7-0.5c-0.7-0.5-1.3-1-1.7-1.5c-0.4-0.5-0.6-1.2-0.6-2c0-0.4,0.1-0.8,0.3-1.2
	c0.2-0.4,0.4-0.7,0.7-1c0.3-0.3,0.7-0.5,1.1-0.6c0.4-0.2,0.9-0.2,1.3-0.2c0.4,0,0.8,0,1.2,0.1c0.5,0.1,1,0.4,1.4,0.8
	c0.2,0.1,0.3,0.3,0.4,0.4L163.4,267.6L163.4,267.6z M173.1,277v-7.5c0-1-0.1-1.6-0.4-2.1c-0.3-0.4-0.7-0.6-1.3-0.6
	c-0.5,0-1.1,0.1-1.5,0.4c-0.2,0.1-0.4,0.3-0.5,0.4c-0.1,0.1-0.3,0.3-0.4,0.4v9h-2v-11.7h1.8v1.3h0c0.1-0.1,0.2-0.3,0.4-0.5
	c0.4-0.4,0.9-0.8,1.5-1c0.3-0.1,0.7-0.2,1.1-0.2c1.3,0,2.3,0.5,2.8,1.6c0.3-0.4,0.7-0.8,1.1-1c0.6-0.4,1.3-0.5,1.9-0.5
	c2.4,0,3.6,1.4,3.6,4.1v7.8h-2v-7.5c0-1-0.2-1.6-0.5-2.1c-0.3-0.4-0.8-0.6-1.5-0.6c-0.6,0-1,0.1-1.4,0.4s-0.7,0.5-0.9,0.8
	c0,0.2,0.1,0.4,0.1,0.6c0,0.2,0,0.4,0,0.6v7.8L173.1,277L173.1,277z M186.1,277h-2v-11.7h2V277L186.1,277z M185.1,262.5
	c-0.4,0-0.7-0.1-1-0.4c-0.2-0.3-0.4-0.6-0.4-1c0-0.4,0.1-0.7,0.4-1c0.2-0.3,0.6-0.4,1-0.4c0.4,0,0.7,0.1,1,0.4
	c0.2,0.3,0.4,0.6,0.4,1c0,0.4-0.1,0.8-0.4,1C185.8,262.3,185.5,262.5,185.1,262.5L185.1,262.5z M195.5,277v-7.5c0-1-0.2-1.7-0.5-2.1
	c-0.3-0.4-0.8-0.6-1.5-0.6c-0.6,0-1.1,0.1-1.5,0.4c-0.4,0.3-0.7,0.6-0.9,0.9v9h-2v-11.7h1.8v1.3h0c0.2-0.4,0.6-0.7,1-1
	c0.3-0.2,0.6-0.3,0.9-0.5c0.4-0.1,0.8-0.2,1.2-0.2c0.5,0,1,0.1,1.4,0.2c0.4,0.2,0.8,0.4,1.1,0.7c0.3,0.3,0.5,0.8,0.7,1.3
	c0.2,0.5,0.2,1.2,0.2,2v7.7L195.5,277L195.5,277z M202.4,277h-2v-11.7h2L202.4,277L202.4,277z M201.4,262.5c-0.4,0-0.7-0.1-1-0.4
	c-0.2-0.3-0.4-0.6-0.4-1c0-0.4,0.1-0.7,0.4-1c0.2-0.3,0.6-0.4,1-0.4c0.4,0,0.7,0.1,1,0.4c0.2,0.3,0.4,0.6,0.4,1c0,0.4-0.1,0.8-0.4,1
	C202.1,262.3,201.8,262.5,201.4,262.5L201.4,262.5z M210.4,267.6c-0.2-0.2-0.5-0.4-0.7-0.6c-0.3-0.3-0.8-0.4-1.3-0.4
	c-0.5,0-0.9,0.1-1.2,0.4c-0.3,0.2-0.4,0.5-0.4,0.9c0,0.4,0.1,0.8,0.4,1.1c0.3,0.3,0.6,0.6,1.2,0.9l0.7,0.4c0.8,0.5,1.4,1,1.9,1.5
	c0.5,0.5,0.7,1.2,0.7,2.1c0,0.9-0.3,1.7-1,2.3c-0.6,0.6-1.6,1-2.8,1c-0.5,0-0.9-0.1-1.2-0.1c-0.3-0.1-0.6-0.2-0.9-0.3
	c-0.2-0.1-0.5-0.3-0.7-0.4c-0.2-0.2-0.3-0.3-0.4-0.4l1-1.6c0.1,0.1,0.2,0.2,0.4,0.3c0.3,0.3,0.7,0.5,1.2,0.7
	c0.2,0.1,0.5,0.1,0.9,0.1c0.6,0,1-0.1,1.3-0.4c0.3-0.2,0.5-0.6,0.5-1c0-0.2,0-0.5-0.1-0.7c-0.1-0.2-0.2-0.4-0.3-0.5
	c-0.2-0.2-0.3-0.3-0.5-0.5c-0.2-0.2-0.5-0.3-0.7-0.5l-0.7-0.5c-0.7-0.5-1.3-1-1.7-1.5c-0.4-0.5-0.6-1.2-0.6-2c0-0.4,0.1-0.8,0.3-1.2
	c0.2-0.4,0.4-0.7,0.7-1c0.3-0.3,0.7-0.5,1.1-0.6c0.4-0.2,0.9-0.2,1.3-0.2c0.4,0,0.8,0,1.2,0.1c0.5,0.1,1,0.4,1.4,0.8
	c0.2,0.1,0.3,0.3,0.4,0.4L210.4,267.6L210.4,267.6z M218.9,266.9h-2.6v6.5c0,0.8,0.1,1.4,0.3,1.7c0.2,0.3,0.6,0.4,1.1,0.4
	c0.3,0,0.5,0,0.8-0.1c0.2-0.1,0.3-0.1,0.5-0.2l0.3,1.6c-0.2,0.1-0.4,0.2-0.6,0.3c-0.3,0.1-0.7,0.2-1.2,0.2c-1,0-1.8-0.3-2.3-0.8
	c-0.5-0.6-0.8-1.5-0.8-2.8v-6.7H213v-1.3l1.4-0.3l0.2-3.3h1.8v3.3h2.8L218.9,266.9L218.9,266.9z M228.5,269.2c0,0.5,0,0.9,0,1.3
	c0,0.3-0.1,0.6-0.1,1h-6c0.1,1.4,0.4,2.4,0.9,3c0.5,0.6,1.3,1,2.3,1c0.3,0,0.6,0,0.9-0.1c0.6-0.2,1.1-0.5,1.5-0.9l0.7,1.4
	c-0.1,0.1-0.2,0.2-0.4,0.4c-0.2,0.2-0.4,0.3-0.7,0.5c-0.3,0.2-0.7,0.3-1,0.4c-0.5,0.1-1,0.2-1.4,0.2c-0.7,0-1.4-0.1-2-0.4
	c-0.6-0.2-1.1-0.6-1.5-1.1c-0.4-0.5-0.7-1.2-1-1.9c-0.2-0.8-0.3-1.7-0.3-2.8c0-1,0.1-1.9,0.4-2.7c0.2-0.8,0.6-1.4,1-1.9
	c0.4-0.5,0.9-0.8,1.4-1.1c0.5-0.2,1.1-0.4,1.7-0.4c1.1,0,2,0.4,2.6,1.1C228.2,266.7,228.5,267.8,228.5,269.2L228.5,269.2z
	 M224.8,266.6c-0.7,0-1.3,0.3-1.7,0.9c-0.4,0.6-0.7,1.4-0.7,2.5h4.3c0-0.1,0-0.2,0-0.4c0-0.2,0-0.3,0-0.5c0-0.8-0.2-1.4-0.5-1.9
	C225.9,266.8,225.4,266.6,224.8,266.6L224.8,266.6z M236.3,267c-0.1-0.1-0.2-0.1-0.3-0.1c-0.2-0.1-0.4-0.1-0.7-0.1
	c-0.6,0-1.1,0.2-1.4,0.5c-0.3,0.3-0.6,0.7-0.7,1.1v8.6h-2v-11.7h1.8v1.6h0.1c0.1-0.2,0.2-0.4,0.3-0.7c0.1-0.2,0.3-0.4,0.5-0.6
	c0.2-0.2,0.4-0.3,0.7-0.4c0.3-0.1,0.6-0.2,1-0.1c0.3,0,0.5,0,0.7,0.1c0.2,0,0.3,0.1,0.4,0.1L236.3,267L236.3,267z M240.2,277h-2
	v-11.7h2V277L240.2,277z M239.2,262.5c-0.4,0-0.7-0.1-1-0.4c-0.2-0.3-0.4-0.6-0.4-1c0-0.4,0.1-0.7,0.4-1c0.2-0.3,0.6-0.4,1-0.4
	c0.4,0,0.7,0.1,1,0.4c0.2,0.3,0.4,0.6,0.4,1c0,0.4-0.1,0.8-0.4,1C239.9,262.3,239.6,262.5,239.2,262.5L239.2,262.5z M251.4,277h-1.8
	v-1.3h0c-0.2,0.4-0.6,0.7-0.9,1c-0.3,0.2-0.6,0.3-0.9,0.4c-0.4,0.1-0.8,0.2-1.2,0.2c-0.5,0-1-0.1-1.4-0.2c-0.4-0.2-0.8-0.4-1.1-0.7
	c-0.3-0.3-0.5-0.8-0.7-1.3c-0.2-0.5-0.2-1.2-0.2-2v-7.7h2v7.5c0,1,0.2,1.7,0.5,2.1c0.3,0.4,0.8,0.6,1.5,0.6c0.6,0,1-0.1,1.4-0.4
	c0.4-0.3,0.7-0.6,0.9-0.8v-9h2L251.4,277L251.4,277z M260.5,277v-7.5c0-1-0.1-1.6-0.4-2.1c-0.3-0.4-0.7-0.6-1.3-0.6
	c-0.5,0-1.1,0.1-1.5,0.4c-0.2,0.1-0.4,0.3-0.5,0.4c-0.1,0.1-0.3,0.3-0.4,0.4v9h-2v-11.7h1.8v1.3h0c0.1-0.1,0.2-0.3,0.4-0.5
	c0.4-0.4,0.9-0.8,1.5-1c0.3-0.1,0.7-0.2,1.1-0.2c1.3,0,2.3,0.5,2.8,1.6c0.3-0.4,0.7-0.8,1.1-1c0.6-0.4,1.3-0.5,1.9-0.5
	c2.4,0,3.6,1.4,3.6,4.1v7.8h-2v-7.5c0-1-0.2-1.6-0.5-2.1c-0.3-0.4-0.8-0.6-1.5-0.6c-0.5,0-1,0.1-1.4,0.4s-0.7,0.5-0.9,0.8
	c0,0.2,0.1,0.4,0.1,0.6c0,0.2,0,0.4,0,0.6v7.8L260.5,277L260.5,277z M107.1,291.4h-2.4v10.1h-2v-10.1h-1.4v-1.3l1.4-0.3v-2.3
	c0-0.6,0.1-1.2,0.3-1.6s0.4-0.8,0.7-1.1c0.3-0.3,0.6-0.5,1-0.6c0.4-0.1,0.8-0.2,1.2-0.2c0.4,0,0.8,0.1,1.1,0.2
	c0.3,0.1,0.5,0.2,0.6,0.3l-0.4,1.6c-0.1-0.1-0.3-0.2-0.4-0.2c-0.2-0.1-0.4-0.1-0.7-0.1c-0.5,0-0.8,0.1-1.1,0.4
	c-0.2,0.3-0.4,0.8-0.4,1.6v2.1h2.6L107.1,291.4L107.1,291.4z M117.3,301.5h-1.8v-1.3h0c0,0.1-0.2,0.2-0.3,0.4
	c-0.2,0.2-0.4,0.4-0.6,0.5c-0.3,0.2-0.6,0.3-0.9,0.5c-0.4,0.1-0.8,0.2-1.2,0.2c-0.5,0-1-0.1-1.4-0.2c-0.4-0.2-0.8-0.4-1.1-0.7
	c-0.3-0.3-0.5-0.8-0.7-1.3c-0.2-0.5-0.2-1.2-0.2-2v-7.7h2v7.5c0,1,0.2,1.7,0.5,2.1c0.3,0.4,0.8,0.6,1.5,0.6c0.6,0,1-0.1,1.4-0.4
	c0.4-0.3,0.7-0.6,0.9-0.8v-9h2L117.3,301.5L117.3,301.5z M112.4,286.5c0,0.4-0.1,0.7-0.3,0.9c-0.2,0.2-0.5,0.3-0.8,0.3
	c-0.3,0-0.6-0.1-0.8-0.3c-0.2-0.2-0.3-0.5-0.3-0.9c0-0.4,0.1-0.7,0.3-0.9c0.2-0.2,0.5-0.3,0.8-0.3c0.3,0,0.6,0.1,0.8,0.3
	C112.3,285.8,112.4,286.1,112.4,286.5L112.4,286.5z M116.2,286.5c0,0.4-0.1,0.7-0.3,0.9c-0.2,0.2-0.5,0.3-0.8,0.3
	c-0.3,0-0.6-0.1-0.8-0.3c-0.2-0.2-0.3-0.5-0.3-0.9c0-0.4,0.1-0.7,0.3-0.9c0.2-0.2,0.5-0.3,0.8-0.3c0.3,0,0.6,0.1,0.8,0.3
	C116.1,285.8,116.2,286.1,116.2,286.5L116.2,286.5z M125.4,291.6c-0.1-0.1-0.2-0.1-0.3-0.1c-0.2-0.1-0.4-0.1-0.7-0.1
	c-0.6,0-1.1,0.2-1.4,0.5c-0.3,0.3-0.6,0.7-0.7,1.1v8.6h-2v-11.7h1.8v1.6h0c0.1-0.2,0.2-0.5,0.3-0.7c0.1-0.2,0.3-0.4,0.5-0.6
	c0.2-0.2,0.4-0.3,0.7-0.4c0.3-0.1,0.6-0.2,1-0.1c0.3,0,0.5,0,0.7,0.1c0.2,0,0.3,0.1,0.4,0.1L125.4,291.6L125.4,291.6z M141.2,289
	c0,0.6-0.1,1.1-0.2,1.5c-0.1,0.4-0.3,0.8-0.6,1.1c-0.2,0.3-0.5,0.6-0.9,0.8c-0.3,0.2-0.7,0.3-1,0.4v0c0.4,0.1,0.8,0.2,1.2,0.5
	c0.8,0.5,1.4,1.2,1.7,2.1c0.2,0.5,0.3,1,0.3,1.5c0,0.6-0.1,1.2-0.3,1.8c-0.2,0.6-0.6,1-1.1,1.4c-0.5,0.4-1.1,0.7-1.8,1
	c-0.7,0.2-1.6,0.3-2.6,0.3h-3.4v-16.8h3.2c1,0,1.8,0.1,2.5,0.3c0.7,0.2,1.3,0.5,1.7,0.9c0.5,0.4,0.8,0.8,1,1.4
	C141.1,287.8,141.2,288.4,141.2,289L141.2,289z M139.1,289.1c0-0.8-0.3-1.4-0.8-1.9c-0.6-0.5-1.4-0.8-2.6-0.8h-1.1v5.8h1.1
	c1.1,0,2-0.3,2.6-0.8C138.8,290.8,139.1,290,139.1,289.1L139.1,289.1z M139.4,296.8c0-0.9-0.3-1.6-0.9-2.2c-0.6-0.5-1.4-0.8-2.5-0.8
	h-1.4v5.9h1.3c1.2,0,2.2-0.2,2.7-0.7C139.1,298.5,139.4,297.8,139.4,296.8L139.4,296.8z M146.2,301.5h-2v-11.7h2L146.2,301.5
	L146.2,301.5z M145.3,287c-0.4,0-0.7-0.1-1-0.4c-0.2-0.3-0.4-0.6-0.4-1c0-0.4,0.1-0.7,0.4-1c0.2-0.3,0.6-0.4,1-0.4
	c0.4,0,0.7,0.1,1,0.4c0.2,0.3,0.4,0.6,0.4,1c0,0.4-0.1,0.8-0.4,1C146,286.9,145.6,287,145.3,287L145.3,287z M151.2,298.8
	c0,0.5,0.1,0.8,0.2,1c0.1,0.2,0.4,0.3,0.7,0.3c0.2,0,0.3,0,0.4,0c0.1,0,0.2-0.1,0.3-0.1l0.2,1.5c-0.2,0.1-0.4,0.1-0.5,0.2
	c-0.3,0.1-0.7,0.1-1,0.1c-0.7,0-1.2-0.2-1.6-0.6c-0.4-0.4-0.6-1.1-0.6-2.2v-14.7l2-0.2L151.2,298.8L151.2,298.8z M154.3,295.8
	c0-1.2,0.2-2.2,0.5-3c0.3-0.8,0.7-1.4,1.2-1.9c0.5-0.5,1-0.8,1.7-1c0.6-0.2,1.2-0.3,1.9-0.3c0.4,0,0.7,0,1,0.1
	c0.3,0.1,0.5,0.1,0.7,0.2v-5.6l2-0.2v17.4h-1.8v-1.2h0c-0.2,0.4-0.5,0.7-0.8,0.9c-0.3,0.2-0.5,0.3-0.9,0.4c-0.3,0.1-0.7,0.2-1.2,0.2
	c-0.6,0-1.1-0.1-1.6-0.3c-0.5-0.2-1-0.6-1.3-1c-0.4-0.5-0.7-1.1-0.9-1.9C154.4,297.8,154.3,296.9,154.3,295.8z M158.9,300.1
	c0.7,0,1.4-0.3,1.9-0.8c0.1-0.1,0.2-0.2,0.3-0.3v-7.2c-0.2-0.1-0.4-0.2-0.6-0.3c-0.3-0.1-0.6-0.1-0.9-0.1c-0.5,0-0.9,0.1-1.3,0.2
	c-0.4,0.2-0.7,0.4-1,0.8c-0.3,0.4-0.5,0.8-0.7,1.4c-0.2,0.6-0.3,1.3-0.3,2.1c0,0.8,0.1,1.5,0.2,2c0.1,0.5,0.3,1,0.6,1.3
	c0.2,0.3,0.5,0.6,0.8,0.7C158.2,300,158.5,300.1,158.9,300.1L158.9,300.1z M174.3,301.5h-1.8v-1.3h0c0,0.1-0.2,0.2-0.3,0.4
	c-0.2,0.2-0.4,0.4-0.6,0.5c-0.3,0.2-0.6,0.3-0.9,0.5c-0.4,0.1-0.8,0.2-1.2,0.2c-0.5,0-1-0.1-1.4-0.2c-0.4-0.2-0.8-0.4-1.1-0.7
	c-0.3-0.3-0.5-0.8-0.7-1.3c-0.2-0.5-0.2-1.2-0.2-2v-7.7h2v7.5c0,1,0.2,1.7,0.5,2.1c0.3,0.4,0.8,0.6,1.5,0.6c0.6,0,1-0.1,1.4-0.4
	c0.4-0.3,0.7-0.6,0.9-0.8v-9h2L174.3,301.5L174.3,301.5z M183.7,301.5V294c0-1-0.2-1.7-0.5-2.1s-0.8-0.6-1.5-0.6
	c-0.6,0-1.1,0.1-1.5,0.4c-0.4,0.3-0.7,0.6-0.9,0.9v9h-2v-11.7h1.8v1.3h0c0.2-0.4,0.6-0.7,1-1c0.3-0.2,0.6-0.3,0.9-0.4
	c0.4-0.1,0.8-0.2,1.2-0.2c0.5,0,1,0.1,1.4,0.2c0.4,0.2,0.8,0.4,1.1,0.7c0.3,0.3,0.5,0.8,0.7,1.3c0.2,0.5,0.2,1.2,0.2,2v7.7
	L183.7,301.5L183.7,301.5z M196.9,291.4h-1.5c0.4,0.6,0.6,1.3,0.6,2.1c0,0.6-0.1,1.2-0.3,1.7c-0.2,0.5-0.5,0.9-0.9,1.3
	c-0.4,0.3-0.8,0.6-1.3,0.8c-0.5,0.2-1,0.3-1.6,0.3h-0.3c-0.1,0-0.2,0-0.3,0c-0.2,0.1-0.4,0.2-0.6,0.4c-0.2,0.2-0.3,0.4-0.3,0.7
	c0,0.2,0.1,0.4,0.3,0.6c0.2,0.2,0.5,0.2,0.9,0.2h1.5c0.5,0,1,0.1,1.5,0.2c0.5,0.1,0.9,0.3,1.2,0.5c0.3,0.3,0.6,0.6,0.8,1
	c0.2,0.4,0.3,0.9,0.3,1.4c0,0.6-0.1,1.2-0.4,1.7c-0.3,0.5-0.6,1-1.1,1.3c-0.5,0.4-1.1,0.7-1.8,0.9c-0.8,0.2-1.5,0.3-2.3,0.3
	c-1.3,0-2.2-0.3-2.9-0.8c-0.6-0.5-1-1.3-1-2.3c0-0.4,0.1-0.8,0.2-1.1c0.2-0.3,0.3-0.6,0.5-0.8c0.2-0.2,0.4-0.4,0.6-0.6l0.5-0.3v0
	c-0.5-0.4-0.8-0.9-0.8-1.6c0-0.3,0.1-0.6,0.2-0.8c0.1-0.2,0.3-0.4,0.4-0.6c0.2-0.1,0.3-0.3,0.5-0.4c0.2-0.1,0.3-0.1,0.4-0.2v0
	c-0.6-0.3-1.1-0.7-1.4-1.3c-0.4-0.6-0.5-1.4-0.5-2.3c0-0.6,0.1-1.2,0.3-1.7c0.2-0.5,0.5-0.9,0.9-1.2c0.4-0.3,0.8-0.6,1.3-0.7
	c0.5-0.2,1-0.2,1.5-0.2c0.5,0,1.1,0.1,1.6,0.3h3.6L196.9,291.4L196.9,291.4z M191.5,301.2c-0.3,0-0.6,0-0.9-0.1
	c-0.1,0.1-0.3,0.2-0.4,0.3c-0.1,0.1-0.3,0.3-0.4,0.4c-0.1,0.2-0.2,0.4-0.3,0.6c-0.1,0.2-0.1,0.5-0.1,0.8c0,1.3,0.7,1.9,2.1,1.9
	c1.2,0,2.1-0.2,2.6-0.7c0.6-0.5,0.9-1,0.9-1.6c0-0.6-0.2-1-0.5-1.2c-0.4-0.2-0.8-0.4-1.4-0.4L191.5,301.2L191.5,301.2z M194.1,293.5
	c0-0.8-0.2-1.4-0.6-1.8c-0.4-0.4-0.9-0.5-1.4-0.5c-0.6,0-1.1,0.2-1.5,0.5s-0.6,1-0.6,1.8c0,0.8,0.2,1.4,0.6,1.8
	c0.4,0.4,0.9,0.5,1.4,0.5c0.6,0,1.1-0.2,1.4-0.5C193.9,294.9,194.1,294.3,194.1,293.5L194.1,293.5z M110.4,326.1h-1.8v-1.3h0
	c-0.2,0.4-0.6,0.7-0.9,1c-0.3,0.2-0.6,0.3-0.9,0.4c-0.4,0.1-0.8,0.2-1.2,0.2c-0.5,0-1-0.1-1.4-0.2c-0.4-0.2-0.8-0.4-1.1-0.7
	c-0.3-0.3-0.5-0.8-0.7-1.3c-0.2-0.5-0.2-1.2-0.2-2v-7.7h2v7.5c0,1,0.2,1.7,0.5,2.1c0.3,0.4,0.8,0.6,1.5,0.6c0.6,0,1-0.1,1.4-0.4
	c0.4-0.3,0.7-0.6,0.9-0.8v-9h2L110.4,326.1L110.4,326.1z M119.8,326.1v-7.5c0-1-0.2-1.7-0.5-2.1c-0.3-0.4-0.8-0.6-1.5-0.6
	c-0.6,0-1.1,0.1-1.5,0.4c-0.4,0.3-0.7,0.6-0.9,0.9v9h-2v-11.7h1.8v1.3h0c0-0.1,0.2-0.2,0.3-0.4c0.2-0.2,0.4-0.4,0.6-0.5
	c0.3-0.2,0.6-0.3,0.9-0.5c0.4-0.1,0.8-0.2,1.2-0.2c0.5,0,1,0.1,1.4,0.2c0.4,0.2,0.8,0.4,1.1,0.7c0.3,0.3,0.5,0.8,0.7,1.3
	c0.2,0.5,0.2,1.2,0.2,2v7.7L119.8,326.1L119.8,326.1z M124.2,320.4c0-1.2,0.2-2.2,0.5-3c0.3-0.8,0.7-1.4,1.2-1.9
	c0.5-0.5,1-0.8,1.7-1c0.6-0.2,1.2-0.3,1.9-0.3c0.4,0,0.7,0,1,0.1c0.3,0.1,0.5,0.1,0.7,0.2v-5.6l2-0.2v17.4h-1.8v-1.2h0
	c-0.2,0.4-0.5,0.7-0.8,0.9c-0.3,0.2-0.5,0.3-0.9,0.4c-0.3,0.1-0.7,0.2-1.2,0.2c-0.5,0-1.1-0.1-1.6-0.3c-0.5-0.2-1-0.6-1.3-1
	c-0.4-0.5-0.7-1.1-0.9-1.9C124.3,322.4,124.2,321.5,124.2,320.4L124.2,320.4z M128.8,324.6c0.3,0,0.6,0,0.8-0.1
	c0.4-0.1,0.8-0.4,1.1-0.7c0.1-0.1,0.2-0.2,0.3-0.3v-7.2c-0.2-0.1-0.4-0.2-0.6-0.3c-0.3-0.1-0.6-0.1-0.9-0.1c-0.5,0-0.9,0.1-1.3,0.2
	c-0.4,0.2-0.7,0.4-1,0.8c-0.3,0.4-0.5,0.8-0.7,1.4c-0.2,0.6-0.3,1.3-0.3,2.1c0,0.8,0.1,1.5,0.2,2c0.1,0.5,0.3,1,0.6,1.3
	c0.2,0.3,0.5,0.6,0.8,0.7C128.2,324.5,128.5,324.6,128.8,324.6L128.8,324.6z M141.6,326.1v-16.8h8.3l-0.1,1.7h-6v6.2h5.5v1.7h-5.5
	v7.2L141.6,326.1L141.6,326.1z M151.3,320.2c0-1.1,0.1-2,0.4-2.8c0.3-0.8,0.6-1.4,1-1.9c0.4-0.5,0.9-0.9,1.5-1.1
	c0.6-0.2,1.2-0.4,1.8-0.4c0.6,0,1.3,0.1,1.8,0.4c0.6,0.2,1,0.6,1.4,1.1c0.4,0.5,0.7,1.1,1,1.9c0.2,0.8,0.4,1.7,0.4,2.8
	c0,1.1-0.1,2-0.4,2.8s-0.6,1.4-1,1.9c-0.4,0.5-0.9,0.9-1.5,1.1c-0.6,0.2-1.2,0.3-1.8,0.3c-0.6,0-1.3-0.1-1.8-0.3
	c-0.6-0.2-1.1-0.6-1.4-1.1c-0.4-0.5-0.7-1.1-1-1.9C151.4,322.3,151.3,321.3,151.3,320.2L151.3,320.2z M158.5,320.2
	c0-1.6-0.2-2.7-0.7-3.4c-0.5-0.7-1.1-1.1-1.9-1.1c-0.8,0-1.4,0.4-1.9,1.1c-0.4,0.7-0.7,1.8-0.7,3.4c0,1.6,0.2,2.7,0.7,3.4
	c0.5,0.7,1.1,1,1.9,1c0.8,0,1.4-0.3,1.9-1C158.3,322.9,158.5,321.8,158.5,320.2L158.5,320.2z M168.2,316.1c-0.1-0.1-0.2-0.1-0.3-0.1
	c-0.2-0.1-0.4-0.1-0.7-0.1c-0.6,0-1.1,0.2-1.4,0.5c-0.3,0.3-0.6,0.7-0.7,1.1v8.6h-2v-11.7h1.8v1.6h0c0.1-0.2,0.2-0.5,0.3-0.7
	c0.1-0.2,0.3-0.4,0.5-0.6c0.2-0.2,0.4-0.3,0.7-0.4c0.3-0.1,0.6-0.2,1-0.1c0.3,0,0.5,0,0.7,0.1c0.2,0,0.3,0.1,0.4,0.1L168.2,316.1
	L168.2,316.1z M175.1,316.7c-0.2-0.2-0.5-0.4-0.7-0.6c-0.3-0.3-0.8-0.4-1.3-0.4c-0.5,0-0.9,0.1-1.2,0.4c-0.3,0.2-0.4,0.5-0.4,0.9
	c0,0.4,0.1,0.8,0.4,1.1c0.3,0.3,0.6,0.6,1.2,0.9l0.7,0.4c0.8,0.5,1.4,1,1.9,1.5c0.5,0.5,0.7,1.2,0.7,2.1c0,0.9-0.3,1.7-1,2.3
	c-0.6,0.6-1.6,1-2.8,1c-0.5,0-0.9,0-1.2-0.1c-0.3-0.1-0.6-0.2-0.9-0.3c-0.2-0.1-0.5-0.3-0.7-0.4c-0.2-0.2-0.3-0.3-0.4-0.4l1-1.6
	c0.1,0.1,0.2,0.2,0.4,0.3c0.3,0.3,0.7,0.5,1.2,0.7c0.2,0.1,0.5,0.1,0.9,0.1c0.6,0,1-0.1,1.3-0.4c0.3-0.2,0.5-0.6,0.5-1
	c0-0.2,0-0.5-0.1-0.7c-0.1-0.2-0.2-0.4-0.3-0.5c-0.2-0.2-0.3-0.3-0.5-0.5c-0.2-0.2-0.5-0.3-0.7-0.5l-0.7-0.5c-0.7-0.5-1.3-1-1.7-1.5
	c-0.4-0.5-0.6-1.2-0.6-2c0-0.4,0.1-0.8,0.3-1.2c0.2-0.4,0.4-0.7,0.7-1c0.3-0.3,0.7-0.5,1.1-0.6c0.4-0.2,0.9-0.2,1.3-0.2
	c0.4,0,0.8,0,1.2,0.1c0.5,0.1,1,0.4,1.4,0.8c0.2,0.1,0.3,0.3,0.4,0.4L175.1,316.7L175.1,316.7z M185,316.6c-0.1-0.1-0.2-0.1-0.2-0.2
	c-0.1-0.1-0.3-0.2-0.4-0.3c-0.2-0.1-0.4-0.2-0.6-0.3c-0.3-0.1-0.5-0.1-0.8-0.1c-0.4,0-0.8,0.1-1.2,0.2c-0.4,0.2-0.7,0.4-1,0.7
	c-0.3,0.3-0.5,0.8-0.6,1.3c-0.2,0.5-0.2,1.2-0.2,2c0,0.9,0.1,1.6,0.2,2.2c0.1,0.6,0.3,1.1,0.6,1.4c0.2,0.3,0.5,0.6,0.9,0.8
	c0.3,0.2,0.7,0.2,1.2,0.2c0.6,0,1.1-0.1,1.4-0.3s0.5-0.4,0.7-0.5l0.8,1.4c-0.1,0.1-0.2,0.2-0.4,0.4c-0.2,0.2-0.4,0.3-0.6,0.4
	c-0.3,0.1-0.6,0.3-0.9,0.3c-0.3,0.1-0.8,0.1-1.2,0.1c-0.6,0-1.3-0.1-1.8-0.3c-0.6-0.2-1.1-0.6-1.5-1c-0.4-0.5-0.8-1.1-1-1.9
	c-0.2-0.8-0.4-1.7-0.4-2.9c0-1.1,0.1-2.1,0.4-2.9c0.3-0.8,0.7-1.4,1.1-1.9c0.5-0.5,1-0.8,1.6-1s1.2-0.3,1.7-0.3c0.4,0,0.8,0,1.2,0.1
	c0.3,0.1,0.6,0.2,0.9,0.3c0.2,0.1,0.4,0.3,0.6,0.4c0.2,0.1,0.3,0.3,0.4,0.4L185,316.6L185,316.6z M194.3,326.1v-7.5
	c0-1-0.2-1.7-0.5-2.1c-0.3-0.4-0.8-0.6-1.5-0.6c-0.6,0-1.1,0.1-1.5,0.4c-0.4,0.3-0.7,0.6-0.9,0.9v9h-2v-17.2l2-0.2v6.9h0
	c0.1-0.1,0.2-0.2,0.3-0.4c0.1-0.2,0.3-0.3,0.6-0.5c0.6-0.4,1.4-0.6,2.1-0.6c1,0,1.8,0.3,2.4,1c0.6,0.7,0.9,1.8,0.9,3.3v7.7
	L194.3,326.1L194.3,326.1z M207.4,326.1h-1.8v-1.3h0c-0.2,0.4-0.6,0.7-0.9,1c-0.3,0.2-0.6,0.3-0.9,0.4c-0.4,0.1-0.8,0.2-1.2,0.2
	c-0.5,0-1-0.1-1.4-0.2c-0.4-0.2-0.8-0.4-1.1-0.7c-0.3-0.3-0.5-0.8-0.7-1.3c-0.2-0.5-0.2-1.2-0.2-2v-7.7h2v7.5c0,1,0.2,1.7,0.5,2.1
	c0.3,0.4,0.8,0.6,1.5,0.6c0.6,0,1-0.1,1.4-0.4c0.4-0.3,0.7-0.6,0.9-0.8v-9h2L207.4,326.1L207.4,326.1z M216.8,326.1v-7.5
	c0-1-0.2-1.7-0.5-2.1c-0.3-0.4-0.8-0.6-1.5-0.6c-0.6,0-1.1,0.1-1.5,0.4c-0.4,0.3-0.7,0.6-0.9,0.9v9h-2v-11.7h1.8v1.3h0
	c0.2-0.4,0.6-0.7,1-1c0.3-0.2,0.6-0.3,0.9-0.5c0.4-0.1,0.8-0.2,1.2-0.2c0.5,0,1,0.1,1.4,0.2c0.4,0.2,0.8,0.4,1.1,0.7
	c0.3,0.3,0.5,0.8,0.7,1.3c0.2,0.5,0.2,1.2,0.2,2v7.7L216.8,326.1L216.8,326.1z M230.1,315.9h-1.5c0.4,0.6,0.6,1.3,0.6,2.1
	c0,0.6-0.1,1.2-0.3,1.7c-0.2,0.5-0.5,0.9-0.9,1.3c-0.4,0.3-0.8,0.6-1.3,0.8c-0.5,0.2-1,0.3-1.6,0.3h-0.3c-0.1,0-0.2,0-0.3,0
	c-0.2,0.1-0.4,0.2-0.6,0.4c-0.2,0.2-0.3,0.4-0.3,0.7c0,0.2,0.1,0.4,0.3,0.6c0.2,0.2,0.5,0.2,0.9,0.2h1.5c0.5,0,1,0.1,1.5,0.2
	c0.5,0.1,0.9,0.3,1.2,0.5c0.3,0.2,0.6,0.6,0.8,1c0.2,0.4,0.3,0.9,0.3,1.4c0,0.6-0.1,1.2-0.4,1.7c-0.3,0.5-0.6,1-1.1,1.3
	c-0.5,0.4-1.1,0.7-1.8,0.9c-0.8,0.2-1.5,0.3-2.3,0.3c-1.3,0-2.2-0.3-2.8-0.8c-0.7-0.5-1-1.3-1-2.4c0-0.4,0.1-0.8,0.2-1.1
	c0.2-0.3,0.3-0.6,0.5-0.8c0.2-0.2,0.4-0.4,0.6-0.6l0.5-0.3v-0.1c-0.5-0.4-0.8-0.9-0.8-1.6c0-0.3,0.1-0.6,0.2-0.8
	c0.1-0.2,0.3-0.4,0.4-0.6c0.2-0.1,0.3-0.3,0.5-0.4c0.2-0.1,0.3-0.1,0.4-0.2v0c-0.6-0.3-1.1-0.7-1.4-1.3c-0.4-0.6-0.5-1.4-0.5-2.3
	c0-0.6,0.1-1.2,0.3-1.7c0.2-0.5,0.5-0.9,0.9-1.2c0.4-0.3,0.8-0.6,1.3-0.7c0.5-0.2,1-0.2,1.5-0.2c0.5,0,1.1,0.1,1.6,0.3h3.6
	L230.1,315.9L230.1,315.9z M224.7,325.7c-0.3,0-0.6,0-0.9-0.1c-0.1,0.1-0.3,0.2-0.4,0.3c-0.1,0.1-0.3,0.3-0.4,0.4
	c-0.1,0.2-0.2,0.4-0.3,0.6c-0.1,0.2-0.1,0.5-0.1,0.8c0,1.3,0.7,1.9,2.1,1.9c1.2,0,2.1-0.2,2.6-0.7c0.6-0.5,0.9-1,0.9-1.6
	c0-0.6-0.2-1-0.5-1.2c-0.4-0.2-0.8-0.4-1.4-0.4L224.7,325.7L224.7,325.7z M227.3,318c0-0.8-0.2-1.4-0.6-1.8
	c-0.4-0.3-0.9-0.5-1.4-0.5c-0.6,0-1.1,0.2-1.5,0.5c-0.4,0.4-0.6,1-0.6,1.8c0,0.8,0.2,1.4,0.6,1.8c0.4,0.4,0.9,0.5,1.4,0.5
	c0.6,0,1.1-0.2,1.5-0.5C227.1,319.5,227.3,318.9,227.3,318L227.3,318z M48.9,275.6c0.1-0.5,0.1-0.9,0.1-1.4c0-0.3,0-0.6,0-0.9
	c4.1-0.1,7.7-3,7.7-6.4c0-1.7-1.1-3-1.8-3.8c0.1,0,0.3-0.1,0.4-0.1c0.6,0.5,2.3,2.4,2.3,4.7C57.6,271.8,53.5,275.5,48.9,275.6
	 M44.8,261.5c-0.1-0.4-0.2-0.9-0.5-1.2c0-0.4,0.2-0.8,0.8-0.5c-0.4,0.4-0.1,1-0.1,1s0.7-0.3,0.6-0.8
	C46.7,260.3,45.9,261.7,44.8,261.5 M43.8,263.6c-0.2-0.6-0.4-1.2-0.9-1.7c-0.4-0.4-1-0.9-1.8-0.9c-0.4,0-1,0.2-1.4,0.3
	c-0.1-0.3-0.4-0.9-0.4-1.2c0-0.3,0.5-0.6,1.5-0.6c2.1,0,3.4,1,3.4,2.6C44.3,262.6,44,263.1,43.8,263.6 M49.3,290.8
	c0.2,0,0.3,0,0.5,0.1c0.6,1.7,2.9,4.8,3,4.9l0,0l0,0c0.6-0.1,2-0.3,3.3-0.3h0c0.1,0,0.3,0,0.4,0.1c0.1,0.1,0.1,0.2,0.1,0.4
	c0,0.3-0.1,0.8-0.3,1.1c-0.4-0.5-1.1-0.7-2.2-0.7c-0.3,0-0.7,0.1-1,0.2l-0.1,0l-0.1,0l0.6,0.6c1,1,1.9,1.9,1.9,2.4
	c0,0.3-0.3,0.8-0.6,1c-0.1-1-1.1-2.4-2.2-3.2l-0.1-0.1l0,0.4c0,0.2,0,0.6,0,1c0,2-0.2,2.3-0.9,2.3c-0.1,0-0.3,0-0.4-0.1
	c0.4-0.5,0.5-1.1,0.5-2.2l0-0.5l0-0.4c0-0.5,0-0.8,0.1-1.1l0-0.2l-0.1,0c-0.5-0.1-0.9-0.1-1.4-0.1c-1,0-1.7,0.1-2.1,0.5
	c-0.3-0.3-0.6-0.7-0.6-1c0-0.4,0.3-0.4,0.6-0.4c0.2,0,0.3,0,0.5,0.1c0.4,0.1,1.1,0.2,2.4,0.2h0.1l0-0.1c-0.3-1-1.2-2.3-2.7-4.1
	C48.7,291.1,48.8,290.8,49.3,290.8 M36.6,295.7L36.6,295.7L36.6,295.7c1.4,0.1,2,0,2.4-0.1c0.2,0,0.4,0,0.6,0c0.3,0,0.6,0,0.6,0.4
	c0,0.3-0.3,0.7-0.6,1c-0.5-0.5-1.2-0.5-2.1-0.5c-0.5,0-1.1,0.1-1.4,0.1l-0.1,0l-0.1,0l0,0.2c0,0.3,0.1,0.6,0.1,1.1l0,0.4l0,0.5
	c0,1.1,0.2,1.7,0.5,2.2c-0.1,0-0.2,0.1-0.4,0.1c-0.7,0-0.9-0.3-0.9-2.3c0-0.4,0-0.8,0-1l0-0.4l-0.1,0.1c-1,0.8-2.1,2.2-2.2,3.2
	c-0.3-0.2-0.6-0.6-0.6-1c0-0.6,0.9-1.4,1.9-2.4l0.6-0.6l0.1-0.1l-0.2,0c-0.3-0.1-0.6-0.1-1-0.2c-1.1,0-1.8,0.2-2.2,0.7
	c-0.2-0.2-0.3-0.7-0.3-1c0-0.2,0-0.3,0.1-0.4c0.1-0.1,0.2-0.1,0.4-0.1h0c1.2,0,2.7,0.2,3.3,0.3l0,0l0,0c0.1-0.1,2.4-3.3,3.1-4.9
	c0.2-0.1,0.3-0.1,0.5-0.1c0.5,0,0.6,0.3,0.7,0.8C37.9,293.4,37,294.7,36.6,295.7 M30.3,267.7c0-2.3,1.7-4.2,2.3-4.7
	c0.1,0,0.3,0.1,0.4,0.1c-0.6,0.8-1.8,2.1-1.8,3.8c0,3.4,3.6,6.4,7.8,6.4c0,0.3,0,0.6,0,0.9c0,0.5,0,1,0.1,1.4
	C34.4,275.6,30.3,271.8,30.3,267.7 M61.6,274.9c2.1,3.3,3.7,3.3,6.2,3.3c-2-1.6-3.4-3.6-4-4.6l-3.8-6.1c-0.4-1.9-1.4-3.7-2.8-5
	c0.5-0.2,0.9-0.4,1.1-0.6c-2.5,0-5-1.3-6.3-1.3c-0.9,0-1.4,0.5-1.4,1.2c0.1,0.8,0.9,1.6,2.3,1.6c0.3,0,0.8,0,1.2-0.1
	c0.8,1.1,1.4,2.1,1.4,3.5c0,2.7-3.2,4.8-6.4,4.8c-0.2,0-0.4,0-0.5,0c-0.3-0.7-1.3-1.8-1.3-3c0-2.1,1.4-3.9,1.4-6
	c0-1.3-0.6-2.1-0.9-2.5c0.4-0.4,0.8-0.8,0.9-1.1c-0.2,0.1-0.5,0.1-0.9,0.1c-1.5,0-2.8-0.4-4-0.4c-0.7,0-0.9,0.2-0.9,0.4
	c0,0.1,0,0.2,0,0.2c-0.3-0.1-0.5-0.2-0.8-0.2c-0.4-0.1-0.8-0.1-1.2-0.1c-1.5,0-2,0.6-2,1.2c0,0.5,0.4,1.3,0.8,1.9
	c0.6-0.3,1.3-0.5,1.6-0.5c0.8,0,1.5,0.8,1.9,1.7c-0.5,0.1-0.6,0.1-1.2,0.1c-1.5,0-2.4-0.5-2.7-0.5c0,0-0.1,0-0.1,0
	c0,0.2,0.4,0.7,1.2,1c1.1,0.4,2.7,0.6,2.9,0.6c0,0-0.3,0.6-0.6,0.7c-0.1,0-0.1,0-0.2,0c-1.1-0.2-1.4-0.3-2.9-0.9c0,0-0.1,0-0.1,0.1
	c0,0.6,1.5,1.8,2.8,2.3c-1.1,1.4-2.5,2.8-3.1,5c-0.2,0-0.4,0-0.5,0c-3.2,0-6.4-2.1-6.4-4.8c0-1.4,0.6-2.4,1.4-3.5
	c0.5,0.1,0.9,0.1,1.2,0.1c1.5,0,2.3-0.8,2.3-1.6c0-0.7-0.6-1.2-1.4-1.2c-1.4,0-3.8,1.3-6.3,1.3c0.2,0.2,0.7,0.4,1.1,0.6
	c-1.4,1.3-2.4,3.1-2.8,5l-3.8,6.1c-0.6,1-2,3-4.1,4.6c2.5,0,4.1,0.1,6.2-3.3l2-3.1c0.1,0.4,0.3,0.8,0.5,1.2l-3.9,6.2
	c-0.6,1-2,3-4.1,4.6c2.5,0,4.1,0.1,6.2-3.3l3.4-5.4c0.3,0.3,0.5,0.5,0.8,0.8l-4.7,7.6c-0.7,1-2,3-4.1,4.6c2.5,0,4.1,0.1,6.2-3.3
	l4.6-7.4c0.3,0.2,0.6,0.4,0.9,0.6l-5.6,9c-0.6,1-2,3-4,4.6c2.5,0,4.1,0.1,6.2-3.3l5.8-9.3c0.3,0.1,0.7,0.3,1,0.4L31,290
	c-0.6,1-2,3-4,4.6c2.5,0,4.1,0.1,6.2-3.3l7-11.2c0.1,0,0.1,0,0.2,0c0.2,0.6,0.3,1.2,0.3,1.7c0,3.5-2.3,6.6-5.1,9
	c0.2,0.1,0.5,0.1,0.8,0.1c0.6,0,0.9,0,1.2-0.1c-0.6,1.5-2,3.3-2.7,4.3c-0.9-0.2-2.2-0.3-3.1-0.3c-0.9,0-1,0.5-1,1
	c0,0.8,0.4,1.5,0.8,1.8c0.2-0.4,0.5-1,2.2-1c0,0,0.1,0,0.2,0c-0.5,0.5-2,1.8-2,2.8c0,0.7,0.7,1.6,1.7,1.6c-0.1-0.2,0-0.4,0-0.6
	c0-0.8,0.7-1.8,1.3-2.4c0,0.2,0,0.2,0,0.4c0,1.9,0.2,2.8,1.4,2.8c0.6,0,1-0.3,1.1-0.4c-0.8-0.7-0.8-1.3-0.8-2.4c0-0.3,0-0.5,0-0.9
	c0-0.2,0-0.6,0-0.8c0.4-0.1,0.6-0.1,0.9-0.1c0,0,1.7-0.1,2.1,0.8c0.5-0.4,1.1-1,1.1-1.7c0-0.4-0.2-0.9-1.1-0.9
	c-0.3,0-1.4,0.2-2.3,0.2c0.2-0.5,1.3-2.1,2.2-3.2c0.1,0.4,0.4,0.9,0.8,1.3c0.1-0.7,0.5-3,1.6-4.3c0.1,0.9,0.3,1.8,0.3,3.8
	c0,4.7-1.1,8.2-3.6,8.9c0.3,0.5,1,1,1.7,1c0.9,0,1.4-1,1.9-1.9c0.3,0.7,1,2.4,1.7,2.4c0.7,0,1.4-1.7,1.7-2.4c0.5,0.9,1,1.9,1.9,1.9
	c0.7,0,1.4-0.5,1.7-1c-2.4-0.7-3.6-4.2-3.6-8.9c0-1.9,0.2-2.9,0.3-3.8c1.1,1.3,1.6,3.6,1.6,4.3c0.5-0.4,0.7-0.9,0.8-1.3
	c0.9,1.1,2,2.7,2.2,3.2c-0.9,0-1.9-0.2-2.3-0.2c-0.9,0-1.1,0.5-1.1,0.9c0,0.7,0.7,1.3,1.1,1.7c0.4-0.9,2.1-0.8,2.1-0.8
	c0.3,0,0.5,0,0.9,0.1c0,0.3,0,0.5,0,0.8l0,0.9c0,1.1,0,1.6-0.8,2.4c0.1,0.1,0.5,0.4,1.1,0.4c1.2,0,1.4-0.9,1.4-2.8
	c0-0.2,0-0.2,0-0.4c0.6,0.7,1.3,1.6,1.3,2.4c0,0.1,0,0.3-0.1,0.6c1,0,1.7-1,1.7-1.6c0-1-1.5-2.2-2-2.8l0.2,0c1.7,0,2,0.6,2.2,1
	c0.5-0.5,0.8-1.1,0.8-1.8c0-0.5-0.1-1-1-1c-0.9,0-2.2,0.1-3.1,0.3c-0.7-1-2.1-2.9-2.7-4.3c0.3,0,0.6,0.1,1.2,0.1
	c0.3,0,0.6,0,0.8-0.1c-2.8-2.4-5.1-5.5-5.1-9c0-0.6,0.1-1.1,0.3-1.7c0.1,0,0.1,0,0.2,0l7,11.2c2.1,3.3,3.7,3.3,6.2,3.3
	c-2-1.6-3.4-3.6-4-4.6l-6.6-10.5c0.4-0.1,0.7-0.2,1-0.4l5.8,9.3c2.1,3.3,3.7,3.3,6.2,3.3c-2.1-1.6-3.4-3.6-4.1-4.6l-5.6-9
	c0.3-0.2,0.6-0.4,0.9-0.6l4.6,7.4c2.1,3.3,3.7,3.3,6.2,3.3c-2.1-1.6-3.4-3.6-4.1-4.6l-4.7-7.6c0.3-0.2,0.5-0.5,0.8-0.8l3.4,5.4
	c2.1,3.3,3.7,3.3,6.2,3.3c-2.1-1.6-3.4-3.6-4.1-4.6l-3.9-6.2c0.2-0.4,0.4-0.8,0.5-1.2L61.6,274.9z M87.4,301.5h-7.2v-40.9h7.2V301.5
	z"/>
<path class="st0" d="M87.4,342.4h-7.2v-40.9h7.2V342.4z"/>
<path class="st1" d="M87.4,383.4h-7.2v-40.9h7.2V383.4z"/>
<path d="M391.6,292.5c-6.6,0-10.9,2.9-10.9,12.8c0,10.2,4,12.3,11,12.3c3.1,0,5.6-0.4,8.3-1l-0.5-4.7c-2.4,0.5-4.2,0.8-6.7,0.8
	c-4.2,0-5.6-0.8-5.7-5.7h13.8c0.1-1.3,0.1-2.5,0.1-3.7C401.1,294.7,398.2,292.5,391.6,292.5z M387.1,302.9c0.1-4.4,1.5-5.6,4.3-5.6
	c2.9,0,4,1.1,4,5.6H387.1z M403.8,358.6h6.3v-32.3h-6.3C403.8,326.3,403.8,358.6,403.8,358.6z M423.3,317.1h5.3v-23.9h-6.4v17
	c-2.2,1.5-4,2.2-5.6,2.2c-2.1,0-3-0.9-3-4v-15.2h-6.4v16.5c0,5.5,2.2,7.8,7.2,7.8c3.1,0,5.6-1.1,8.5-2.8
	C422.9,314.6,423.3,317.1,423.3,317.1z M373.3,331.3h8.8v27.3h6.3v-27.3h8.7v-5h-23.9V331.3z M361.2,339.8c-5.3-2.7-6.5-3.6-6.5-5.8
	c0-2.2,1.7-3.5,5.7-3.5c2.7,0,4.6,0.4,6.7,0.9l0.6-4.7c-2-0.6-4.4-1-7.3-1c-8.2,0-11.7,3.5-11.7,8.8c0,4.9,2,6.7,8.1,9.8
	c5.5,2.8,6.7,3.7,6.7,6.1c0,2.6-1.9,4-6,4c-2.8,0-5.3-0.4-7.8-1.1l-0.6,4.7c2.7,0.7,5.4,1.1,8.3,1.1c8.3,0,12-3.6,12-9.5
	C369.6,344.8,367.7,343.1,361.2,339.8z M487.5,317.5c2.1,0,4.5-0.4,6.4-0.9l-0.5-4.7c-1.6,0.4-3.4,0.7-4.8,0.7
	c-3.8,0-5.2-1.3-5.2-7.6s1.9-7.5,5.1-7.5c1.8,0,3.3,0.2,4.9,0.7l0.6-4.7c-1.9-0.5-4-0.8-6.2-0.8c-6.5,0-10.9,2.8-10.9,12.6
	C477,315,480.4,317.5,487.5,317.5z M604.2,317.5c2.9,0,5.1-1.2,7.6-2.8l0.4,2.4h5.3v-35.6H611v7.5c0,1.7,0.1,3.2,0.3,4.9l-0.1,0.1
	c-1.6-0.8-3.3-1.2-5.2-1.2c-5.6,0-10.1,3.4-10.1,12.7C595.9,314.7,599.2,317.5,604.2,317.5z M607.1,297.7c1.4,0,2.5,0.4,3.9,1.2
	v11.3c-2,1.4-3.5,2.1-4.9,2.1c-2.4,0-3.7-1.2-3.7-7.1C602.4,299.2,604.7,297.7,607.1,297.7z M361.4,283.6h-11v33.5h10.8
	c10.3,0,14.5-3.7,14.5-17C375.6,286.5,371.8,283.6,361.4,283.6z M361.2,312h-4.3v-23.4h4.3c5.9,0,8,1.6,8,11.6
	C369.1,310.2,366.9,312,361.2,312z M568.9,345.4c0,6.5-1.2,9-6,9c-5,0-6.2-2.4-6.2-8.9v-19.2h-6.3v19.2c0,9.9,3,13.7,12.2,13.7
	c9.4,0,12.6-4.2,12.6-14.2v-18.8h-6.3C568.9,326.2,568.9,345.4,568.9,345.4z M555.1,317.1h5.3v-16.7c0-5.4-2.3-7.7-9.2-7.7
	c-3,0-5.7,0.4-8.5,1.1l0.6,4.7c2.3-0.5,4.5-0.9,6.7-0.9c2.9,0,3.9,1.1,3.9,3.2v1.6h-1.9c-8.3,0-11.5,3.1-11.5,8
	c0,4.8,2.9,7.1,6.9,7.1c2.9,0,5-1.2,7.3-2.6C554.8,314.9,555.1,317.1,555.1,317.1z M554,310.7c-2,1.3-3.3,2.1-5,2.1
	c-1.6,0-2.7-0.9-2.7-2.9c0-2.3,1.5-3.5,6.2-3.5h1.5C554,306.5,554,310.7,554,310.7z M536.5,358.6h6.3v-32.3h-6.3
	C536.5,326.3,536.5,358.6,536.5,358.6z M617.3,326.2h-9.7l-4.7,17.2c-0.9,3.5-1.5,6.3-2.3,10.2h-0.1c-0.7-3.4-1.4-6.8-2.3-10.1
	l-4.7-17.3h-9.6l-2.7,32.3h6.2l1.3-18.6c0.2-3.3,0.3-6.3,0.4-9.6h0.1c0.8,3.3,1.6,6.3,2.4,9.6l4.8,18.6h8.2l4.9-18.6
	c0.9-3.4,1.6-6.3,2.4-9.7l0.1,0.1c0.1,3.4,0.1,6.3,0.3,9.6l1.3,18.6h6.5C620,358.6,617.3,326.2,617.3,326.2z M528.1,317.1h6.4v-35.6
	h-6.4C528.1,281.5,528.1,317.1,528.1,317.1z M583.4,301.9v15.2h6.4v-16.5c0-5.5-2.2-7.8-7.2-7.8c-3.1,0-5.6,1.1-8.5,2.9l-0.4-2.5
	h-5.3v23.9h6.4v-17c2.2-1.5,4-2.2,5.6-2.2C582.4,297.9,583.4,298.8,583.4,301.9z M465.8,302.7c-3.7-1.5-4.7-2-4.7-3.2
	c0-1.5,1.4-2.2,3.9-2.2c1.8,0,3.7,0.3,5.4,0.7l0.6-4.6c-1.6-0.4-3.7-0.8-5.8-0.8c-6.7,0-10.1,2.4-10.1,7.3c0,3.7,1.7,5.1,6.2,7
	c4,1.6,5,2.1,5,3.5c0,1.5-1.3,2.4-4.2,2.4c-1.9,0-4-0.3-6.4-0.9l-0.6,4.7c2.2,0.6,4.2,0.9,6.7,0.9c7.5,0,10.5-2.7,10.5-7.5
	C472.3,305.9,470.5,304.6,465.8,302.7z M446.2,358.6h18.6v-4.9h-12.3v-9.3h11.4v-4.8h-11.4v-8.5h12.3v-4.9h-18.6L446.2,358.6
	L446.2,358.6z M429,326.3h-9.7v32.3h6.3V346h2.9c8.5,0,11.9-3,11.9-10.4C440.4,328,437.1,326.3,429,326.3L429,326.3z M428.7,341.2
	h-3.1V331h3.3c4,0,5.3,1,5.3,4.8S432.6,341.2,428.7,341.2z M449.4,312.2c-0.9,0.3-1.8,0.4-2.8,0.4c-1.7,0-2.4-0.8-2.4-3.3v-11.4h5.2
	v-4.8h-5.2v-7.5l-6.4,0.9v6.7h-3.5v4.8h3.5V311c0,4.6,1.7,6.5,6.9,6.5c2,0,3.7-0.3,5.3-0.7L449.4,312.2z M492.4,343.3
	c0,2.5,0.2,5.4,0.6,8.7h-0.1c-1.3-3.2-2.5-5.8-4-8.7l-8.8-17h-8v32.3h5.4v-17c0-2.5-0.2-5.4-0.5-8.7h0.1c1.3,3.2,2.5,5.8,3.9,8.7
	l8.8,17h8.1v-32.3h-5.4C492.4,326.2,492.4,343.3,492.4,343.3z M506.6,300.1c2.2-1.5,4-2.2,5.6-2.2c2,0,3,0.9,3,4v15.2h6.4v-16.5
	c0-5.5-2.2-7.8-7.2-7.8c-3.1,0-5.5,1.1-8,2.5l-0.1-0.1c0.2-2,0.3-3.5,0.3-5.1v-8.6h-6.4v35.6h6.4L506.6,300.1L506.6,300.1z
	 M516.4,326.2h-10.6v32.3h10.4c9.9,0,14-3.5,14-16.4C530.2,329.1,526.4,326.2,516.4,326.2z M516.2,353.7H512v-22.6h4.2
	c5.7,0,7.7,1.6,7.7,11.2S521.7,353.7,516.2,353.7z"/>
<path class="st2" d="M340,367.2h-12.4v-92.5h12c1.2,0,2.3-1,2.3-2.3c0-1.2-1-2.2-2.2-2.2h-14.3c-1.2,0-2.3,1-2.3,2.3v97
	c0,1.2,1,2.3,2.3,2.3H340c1.2,0,2.3-1,2.3-2.3C342.2,368.3,341.2,367.2,340,367.2z"/>
</svg>
